<svg width="1280" height="727" viewBox="0 0 1280 727" fill="none" xmlns="http://www.w3.org/2000/svg">
<rect y="0.270508" width="1280" height="726.492" fill="#189EFF"/>
<rect x="1.58088" y="-3.17307" width="132.449" height="131.467" transform="matrix(-0.315017 -0.949086 0.947369 -0.320144 732.384 185.451)" stroke="white" stroke-opacity="0.5" stroke-width="5"/>
<rect x="1.58088" y="-3.17307" width="132.449" height="131.467" transform="matrix(-0.315017 -0.949086 0.947369 -0.320144 819.384 179.451)" stroke="white" stroke-opacity="0.5" stroke-width="5"/>
<rect x="3.02651" y="-1.81309" width="83.9346" height="83.2335" transform="matrix(0.241144 -0.970489 0.969459 0.245252 384.054 146.879)" stroke="#FFFCFC" stroke-opacity="0.5" stroke-width="5"/>
<rect x="3.02651" y="-1.81309" width="83.9346" height="83.2335" transform="matrix(0.241144 -0.970489 0.969459 0.245252 349.054 183.879)" stroke="#FFFCFC" stroke-opacity="0.5" stroke-width="5"/>
<rect x="3.02651" y="-1.81309" width="83.9346" height="83.2335" transform="matrix(0.241144 -0.970489 0.969459 0.245252 1106.05 211.878)" stroke="#FFFCFC" stroke-opacity="0.5" stroke-width="5"/>
<rect x="3.02651" y="-1.81309" width="83.9346" height="83.2335" transform="matrix(0.241144 -0.970489 0.969459 0.245252 1151.05 178.879)" stroke="#FFFCFC" stroke-opacity="0.5" stroke-width="5"/>
<rect x="1.58088" y="-3.17307" width="132.449" height="131.467" transform="matrix(-0.315017 -0.949086 0.947369 -0.320144 308.384 535.451)" stroke="white" stroke-opacity="0.5" stroke-width="5"/>
<rect x="1.58088" y="-3.17307" width="132.449" height="131.467" transform="matrix(-0.315017 -0.949086 0.947369 -0.320144 365.384 496.451)" stroke="white" stroke-opacity="0.5" stroke-width="5"/>
<rect x="3.51963" width="194.899" height="194.899" transform="matrix(0.703926 -0.710273 0.703926 0.710273 28.0421 250.483)" stroke="white" stroke-opacity="0.5" stroke-width="5"/>
<rect x="3.51963" width="194.899" height="194.899" transform="matrix(0.703926 -0.710273 0.703926 0.710273 13.0421 152.483)" stroke="white" stroke-opacity="0.5" stroke-width="5"/>
<rect x="3.15439" y="-1.57558" width="100.584" height="99.8289" transform="matrix(0.314058 -0.949404 0.947697 0.319172 104.657 669.163)" stroke="white" stroke-opacity="0.5" stroke-width="5"/>
<rect x="3.15439" y="-1.57558" width="100.584" height="99.8289" transform="matrix(0.314058 -0.949404 0.947697 0.319172 17.6569 666.163)" stroke="white" stroke-opacity="0.5" stroke-width="5"/>
<rect x="3.51963" width="194.899" height="194.899" transform="matrix(0.703926 -0.710273 0.703926 0.710273 613.042 479.483)" stroke="white" stroke-opacity="0.5" stroke-width="5"/>
<rect x="493.536" y="530.714" width="194" height="194" transform="rotate(-45 493.536 530.714)" stroke="white" stroke-opacity="0.5" stroke-width="5"/>
<rect x="3.15439" y="-1.57558" width="215.012" height="213.439" transform="matrix(0.314058 -0.949404 0.947697 0.319172 898.657 612.802)" stroke="white" stroke-opacity="0.5" stroke-width="5"/>
<rect x="3.15439" y="-1.57558" width="215.012" height="213.439" transform="matrix(0.314058 -0.949404 0.947697 0.319172 967.657 526.802)" stroke="white" stroke-opacity="0.5" stroke-width="5"/>
</svg>
