<svg width="180" height="141" viewBox="0 0 180 141" fill="none" xmlns="http://www.w3.org/2000/svg">
<path d="M166 104C166 76.4175 157.782 49.9647 143.154 30.4609C128.526 10.9571 108.686 2.08242e-06 87.9995 0C67.3126 -2.08242e-06 47.473 10.9571 32.8452 30.4609C18.2174 49.9647 9.99951 76.4175 9.99951 104L10.9995 91L11.9995 85L13.9995 77L15.9995 71L19.9995 62L23.9995 55L31.9995 44L37.9995 38L43.9995 33L49.9995 29L54.9995 26L61.9995 23L70.9995 20L75.9995 19L87.9995 18L99.9995 19L105 20L111 22L121 26L132 33L142 42L148 49L152 55L156 62L160 71L162 77L164 85L165 90L166 104Z" fill="white" fill-opacity="0.67"/>
<path d="M48.0742 62.7341C44.2641 64.4624 42.0977 66.3533 38.2293 69.8515V83.0187C38.2293 83.0187 29.1827 89.4243 28.6506 90.4919C28.1184 91.5595 29.4488 91.5595 29.4488 91.5595C36.9514 86.5098 42.5686 83.807 61.6442 79.8158V67.7163L57.653 72.6984C57.3002 73.039 57.1342 72.9669 56.8548 72.6984C54.47 67.9906 53.7004 67.2507 52.8636 67.7163C51.3145 68.2101 49.2066 69.2174 46.2117 70.5632C45.5175 70.7642 45.3795 70.5987 45.6795 69.8515L48.8725 63.8017C48.9914 62.7481 49.098 62.0995 48.0742 62.7341Z" fill="white"/>
<path d="M128.961 62.9841C132.771 64.7124 134.937 66.6033 138.806 70.1015V83.2687C138.806 83.2687 147.852 89.6743 148.385 90.7419C148.917 91.8095 147.586 91.8095 147.586 91.8095C140.084 86.7598 134.467 84.057 115.391 80.0658V67.9663L119.382 72.9484C119.735 73.289 119.901 73.2169 120.18 72.9484C122.565 68.2406 123.335 67.5007 124.172 67.9663C125.721 68.4601 127.829 69.4674 130.823 70.8132C131.518 71.0142 131.656 70.8487 131.356 70.1015L128.163 64.0517C128.044 62.9981 127.937 62.3495 128.961 62.9841Z" fill="white"/>
<path d="M76.8114 54.9033C74.1459 55.4563 72.7112 56.2591 70.1595 57.7503C68.8732 58.5544 68.1085 59.2162 66.7005 60.5972C64.3691 62.0853 63.8907 64.2458 63.2415 68.4264V82.6611C55.7905 82.8241 50.038 85.5525 49.1393 85.1522C48.2407 84.7519 32.0534 91.0416 32.6425 91.5578C32.6425 91.5578 22.9123 98.0142 17.4761 101.878H18.2743C29.9996 96.5446 36.5792 93.9688 48.3411 90.4902L70.1595 86.9315L88.2528 85.5081L107.41 86.9315L119.65 89.0668L133.486 91.9137C139.152 93.7361 142.306 94.8599 147.854 97.2518L159.029 101.522L153.974 97.2518L142.267 90.4902L126.568 84.7963L113.264 81.7648V67.3587L108.475 59.1738C104.676 57.306 102.568 56.2875 99.428 55.2592C100.58 59.2459 101.474 61.2898 103.153 64.8677C103.887 66.1779 103.516 66.0544 102.621 65.5794C99.2785 63.753 97.478 62.9903 94.3726 62.0207C92.3583 62.5758 90.8253 64.9787 88.2528 68.4264H87.7206C85.4788 65.4655 84.4177 63.1983 81.6008 62.0207C78.1726 62.7273 76.3295 63.645 73.0863 65.5794C72.2457 66.0541 72.0206 66.0274 72.5542 64.8677C75.0714 60.544 75.963 58.3789 76.8114 54.9033Z" fill="white"/>
<path d="M100.629 35.5197C100.361 31.7718 99.1942 26.7295 93.7113 23.4201C89.6998 21.7246 87.1244 21.8855 82.2699 23.0642C77.9835 26.9217 76.3031 29.644 75.0858 35.8755C74.8868 39.6441 74.9214 41.2249 75.0858 43.7047C76.3493 50.9645 81.2041 57.4026 84.9307 59.7188C88.0394 60.654 89.0393 60.2884 91.5827 59.7188C95.3358 56.822 97.2063 55.7641 100.629 43.3489C100.896 40.055 100.942 38.2739 100.629 35.5197Z" fill="#FBFBFB"/>
<path d="M123.373 37.8216C119.802 37.2194 117.884 37.2329 114.593 37.8216C111.792 39.6974 110.465 41.3791 109.005 46.7183C108.783 49.5727 108.793 51.171 109.005 54.0255C109.884 58.3071 110.846 60.5688 114.061 64.1559C117.792 67.1725 119.829 67.2654 123.373 64.1559C126.417 60.2944 128.01 58.1188 128.695 54.0255C129.101 50.9491 129.245 49.2709 128.695 46.7183C127.045 41.9976 126.009 39.6739 123.373 37.8216Z" fill="white"/>
<path d="M52.4264 37.5559C55.9981 36.9538 57.916 36.9673 61.207 37.5559C64.0076 39.4318 65.335 41.1135 66.7946 46.4527C67.0165 49.307 67.007 50.9053 66.7946 53.7598C65.9157 58.0415 64.9541 60.3032 61.7391 63.8903C58.0079 66.9069 55.9709 66.9998 52.4264 63.8903C49.3829 60.0287 47.7898 57.8532 47.1049 53.7598C46.6991 50.6835 46.5546 49.0052 47.1049 46.4527C48.7546 41.732 49.7911 39.4083 52.4264 37.5559Z" fill="white"/>
<path d="M11.4741 113.287C10.3448 113.287 9.47943 113.631 8.87809 114.321C8.27676 115.01 7.97609 115.985 7.97609 117.247C7.97609 118.523 8.30609 119.505 8.96609 120.195C9.64076 120.884 10.5428 121.229 11.6721 121.229C12.2734 121.229 12.7794 121.148 13.1901 120.987C13.6154 120.825 14.0188 120.642 14.4001 120.437C14.6494 120.642 14.8401 120.891 14.9721 121.185C15.1188 121.463 15.1921 121.793 15.1921 122.175C15.1921 122.776 14.8548 123.289 14.1801 123.715C13.5201 124.125 12.5081 124.331 11.1441 124.331C10.1614 124.331 9.23743 124.191 8.37209 123.913C7.50676 123.634 6.75143 123.209 6.10609 122.637C5.46076 122.05 4.94743 121.317 4.56609 120.437C4.19943 119.542 4.01609 118.479 4.01609 117.247C4.01609 116.103 4.19209 115.098 4.54409 114.233C4.91076 113.353 5.40209 112.612 6.01809 112.011C6.64876 111.409 7.38209 110.955 8.21809 110.647C9.05409 110.339 9.94876 110.185 10.9021 110.185C12.2514 110.185 13.2928 110.405 14.0261 110.845C14.7741 111.285 15.1481 111.849 15.1481 112.539C15.1481 112.92 15.0528 113.25 14.8621 113.529C14.6714 113.807 14.4514 114.027 14.2021 114.189C13.8208 113.939 13.4101 113.727 12.9701 113.551C12.5448 113.375 12.0461 113.287 11.4741 113.287ZM16.3696 117.247C16.3696 116.103 16.5456 115.091 16.8976 114.211C17.2643 113.331 17.7556 112.597 18.3716 112.011C19.0023 111.409 19.7356 110.955 20.5716 110.647C21.4223 110.339 22.3389 110.185 23.3216 110.185C24.3043 110.185 25.2136 110.339 26.0496 110.647C26.9003 110.955 27.6409 111.409 28.2716 112.011C28.9023 112.597 29.3936 113.331 29.7456 114.211C30.1123 115.091 30.2956 116.103 30.2956 117.247C30.2956 118.391 30.1196 119.41 29.7676 120.305C29.4156 121.185 28.9243 121.925 28.2936 122.527C27.6776 123.113 26.9443 123.561 26.0936 123.869C25.2429 124.177 24.3189 124.331 23.3216 124.331C22.3243 124.331 21.4003 124.177 20.5496 123.869C19.6989 123.546 18.9656 123.084 18.3496 122.483C17.7336 121.881 17.2496 121.141 16.8976 120.261C16.5456 119.381 16.3696 118.376 16.3696 117.247ZM20.3296 117.247C20.3296 118.581 20.6009 119.579 21.1436 120.239C21.6863 120.899 22.4123 121.229 23.3216 121.229C24.2456 121.229 24.9789 120.899 25.5216 120.239C26.0643 119.579 26.3356 118.581 26.3356 117.247C26.3356 115.927 26.0643 114.937 25.5216 114.277C24.9936 113.617 24.2676 113.287 23.3436 113.287C22.4343 113.287 21.7009 113.617 21.1436 114.277C20.6009 114.922 20.3296 115.912 20.3296 117.247ZM44.5764 123.473C44.371 123.678 44.0704 123.832 43.6744 123.935C43.293 124.052 42.831 124.111 42.2884 124.111C41.7457 124.111 41.2324 124.03 40.7484 123.869C40.2644 123.707 39.8684 123.319 39.5604 122.703L37.3824 118.259C37.1624 117.804 36.9644 117.379 36.7884 116.983C36.6124 116.572 36.4217 116.103 36.2164 115.575L36.0844 115.597C36.143 116.389 36.1724 117.195 36.1724 118.017C36.187 118.838 36.1944 119.645 36.1944 120.437V123.847C36.033 123.891 35.7837 123.935 35.4464 123.979C35.1237 124.023 34.801 124.045 34.4784 124.045C34.1557 124.045 33.8697 124.023 33.6204 123.979C33.371 123.935 33.1657 123.847 33.0044 123.715C32.843 123.583 32.7184 123.407 32.6304 123.187C32.5424 122.952 32.4984 122.651 32.4984 122.285V111.285C32.7037 110.991 33.019 110.771 33.4444 110.625C33.8697 110.478 34.3244 110.405 34.8084 110.405C35.351 110.405 35.8644 110.493 36.3484 110.669C36.847 110.83 37.243 111.211 37.5364 111.813L39.7364 116.257C39.9564 116.711 40.1544 117.144 40.3304 117.555C40.5064 117.951 40.697 118.413 40.9024 118.941L41.0124 118.919C40.9537 118.127 40.917 117.335 40.9024 116.543C40.8877 115.751 40.8804 114.959 40.8804 114.167V110.603C41.0417 110.559 41.2837 110.515 41.6064 110.471C41.9437 110.427 42.2737 110.405 42.5964 110.405C43.2417 110.405 43.733 110.522 44.0704 110.757C44.4077 110.977 44.5764 111.446 44.5764 112.165V123.473ZM56.802 110.603C56.9047 110.764 56.9927 110.984 57.066 111.263C57.154 111.527 57.198 111.805 57.198 112.099C57.198 112.671 57.0733 113.081 56.824 113.331C56.5893 113.565 56.2667 113.683 55.856 113.683H51.236V116.169H56.054C56.1713 116.33 56.2667 116.543 56.34 116.807C56.428 117.071 56.472 117.349 56.472 117.643C56.472 118.2 56.3473 118.603 56.098 118.853C55.8633 119.087 55.5407 119.205 55.13 119.205H51.28V123.847C51.1187 123.891 50.862 123.935 50.51 123.979C50.1727 124.023 49.8353 124.045 49.498 124.045C49.1607 124.045 48.86 124.015 48.596 123.957C48.3467 123.913 48.134 123.825 47.958 123.693C47.782 123.561 47.65 123.377 47.562 123.143C47.474 122.908 47.43 122.6 47.43 122.219V112.649C47.43 112.018 47.6133 111.519 47.98 111.153C48.3467 110.786 48.8453 110.603 49.476 110.603H56.802ZM59.1175 112.649C59.1175 112.018 59.3008 111.519 59.6675 111.153C60.0342 110.786 60.5328 110.603 61.1635 110.603H68.4235C68.5262 110.764 68.6142 110.977 68.6875 111.241C68.7755 111.505 68.8195 111.783 68.8195 112.077C68.8195 112.634 68.6948 113.03 68.4455 113.265C68.2108 113.499 67.8955 113.617 67.4995 113.617H62.8575V115.663H67.8075C67.9102 115.824 67.9982 116.037 68.0715 116.301C68.1595 116.55 68.2035 116.821 68.2035 117.115C68.2035 117.672 68.0862 118.068 67.8515 118.303C67.6168 118.537 67.3015 118.655 66.9055 118.655H62.8575V120.965H68.5115C68.6142 121.126 68.7022 121.339 68.7755 121.603C68.8635 121.867 68.9075 122.145 68.9075 122.439C68.9075 122.996 68.7828 123.399 68.5335 123.649C68.2988 123.883 67.9835 124.001 67.5875 124.001H61.1635C60.5328 124.001 60.0342 123.817 59.6675 123.451C59.3008 123.084 59.1175 122.585 59.1175 121.955V112.649ZM74.9982 119.623V123.847C74.8369 123.891 74.5802 123.935 74.2282 123.979C73.8909 124.023 73.5536 124.045 73.2162 124.045C72.8789 124.045 72.5782 124.015 72.3142 123.957C72.0649 123.913 71.8522 123.825 71.6762 123.693C71.5149 123.561 71.3902 123.377 71.3022 123.143C71.2142 122.908 71.1702 122.6 71.1702 122.219V111.857C71.1702 111.549 71.2509 111.314 71.4122 111.153C71.5882 110.977 71.8229 110.837 72.1162 110.735C72.6149 110.559 73.1942 110.434 73.8542 110.361C74.5142 110.273 75.2182 110.229 75.9662 110.229C77.9902 110.229 79.5156 110.654 80.5422 111.505C81.5689 112.355 82.0822 113.507 82.0822 114.959C82.0822 115.868 81.8476 116.645 81.3782 117.291C80.9089 117.936 80.3516 118.435 79.7062 118.787C80.2342 119.505 80.7549 120.18 81.2682 120.811C81.7816 121.441 82.1849 122.013 82.4782 122.527C82.3316 123.04 82.0602 123.436 81.6642 123.715C81.2829 123.979 80.8502 124.111 80.3662 124.111C80.0436 124.111 79.7649 124.074 79.5302 124.001C79.2956 123.927 79.0902 123.825 78.9142 123.693C78.7382 123.561 78.5769 123.399 78.4302 123.209C78.2836 123.018 78.1442 122.813 78.0122 122.593L76.1642 119.623H74.9982ZM76.3842 116.697C76.9416 116.697 77.3816 116.557 77.7042 116.279C78.0269 115.985 78.1882 115.56 78.1882 115.003C78.1882 114.445 78.0049 114.027 77.6382 113.749C77.2862 113.455 76.7216 113.309 75.9442 113.309C75.7242 113.309 75.5482 113.316 75.4162 113.331C75.2842 113.345 75.1376 113.367 74.9762 113.397V116.697H76.3842ZM84.5765 112.649C84.5765 112.018 84.7598 111.519 85.1265 111.153C85.4932 110.786 85.9918 110.603 86.6225 110.603H93.8825C93.9852 110.764 94.0732 110.977 94.1465 111.241C94.2345 111.505 94.2785 111.783 94.2785 112.077C94.2785 112.634 94.1538 113.03 93.9045 113.265C93.6698 113.499 93.3545 113.617 92.9585 113.617H88.3165V115.663H93.2665C93.3692 115.824 93.4572 116.037 93.5305 116.301C93.6185 116.55 93.6625 116.821 93.6625 117.115C93.6625 117.672 93.5452 118.068 93.3105 118.303C93.0758 118.537 92.7605 118.655 92.3645 118.655H88.3165V120.965H93.9705C94.0732 121.126 94.1612 121.339 94.2345 121.603C94.3225 121.867 94.3665 122.145 94.3665 122.439C94.3665 122.996 94.2418 123.399 93.9925 123.649C93.7578 123.883 93.4425 124.001 93.0465 124.001H86.6225C85.9918 124.001 85.4932 123.817 85.1265 123.451C84.7598 123.084 84.5765 122.585 84.5765 121.955V112.649ZM108.707 123.473C108.502 123.678 108.201 123.832 107.805 123.935C107.424 124.052 106.962 124.111 106.419 124.111C105.877 124.111 105.363 124.03 104.879 123.869C104.395 123.707 103.999 123.319 103.691 122.703L101.513 118.259C101.293 117.804 101.095 117.379 100.919 116.983C100.743 116.572 100.553 116.103 100.347 115.575L100.215 115.597C100.274 116.389 100.303 117.195 100.303 118.017C100.318 118.838 100.325 119.645 100.325 120.437V123.847C100.164 123.891 99.9146 123.935 99.5772 123.979C99.2546 124.023 98.9319 124.045 98.6092 124.045C98.2866 124.045 98.0006 124.023 97.7512 123.979C97.5019 123.935 97.2966 123.847 97.1352 123.715C96.9739 123.583 96.8492 123.407 96.7612 123.187C96.6732 122.952 96.6292 122.651 96.6292 122.285V111.285C96.8346 110.991 97.1499 110.771 97.5752 110.625C98.0006 110.478 98.4552 110.405 98.9392 110.405C99.4819 110.405 99.9952 110.493 100.479 110.669C100.978 110.83 101.374 111.211 101.667 111.813L103.867 116.257C104.087 116.711 104.285 117.144 104.461 117.555C104.637 117.951 104.828 118.413 105.033 118.941L105.143 118.919C105.085 118.127 105.048 117.335 105.033 116.543C105.019 115.751 105.011 114.959 105.011 114.167V110.603C105.173 110.559 105.415 110.515 105.737 110.471C106.075 110.427 106.405 110.405 106.727 110.405C107.373 110.405 107.864 110.522 108.201 110.757C108.539 110.977 108.707 111.446 108.707 112.165V123.473ZM118.359 113.287C117.23 113.287 116.364 113.631 115.763 114.321C115.162 115.01 114.861 115.985 114.861 117.247C114.861 118.523 115.191 119.505 115.851 120.195C116.526 120.884 117.428 121.229 118.557 121.229C119.158 121.229 119.664 121.148 120.075 120.987C120.5 120.825 120.904 120.642 121.285 120.437C121.534 120.642 121.725 120.891 121.857 121.185C122.004 121.463 122.077 121.793 122.077 122.175C122.077 122.776 121.74 123.289 121.065 123.715C120.405 124.125 119.393 124.331 118.029 124.331C117.046 124.331 116.122 124.191 115.257 123.913C114.392 123.634 113.636 123.209 112.991 122.637C112.346 122.05 111.832 121.317 111.451 120.437C111.084 119.542 110.901 118.479 110.901 117.247C110.901 116.103 111.077 115.098 111.429 114.233C111.796 113.353 112.287 112.612 112.903 112.011C113.534 111.409 114.267 110.955 115.103 110.647C115.939 110.339 116.834 110.185 117.787 110.185C119.136 110.185 120.178 110.405 120.911 110.845C121.659 111.285 122.033 111.849 122.033 112.539C122.033 112.92 121.938 113.25 121.747 113.529C121.556 113.807 121.336 114.027 121.087 114.189C120.706 113.939 120.295 113.727 119.855 113.551C119.43 113.375 118.931 113.287 118.359 113.287ZM124.129 112.649C124.129 112.018 124.313 111.519 124.679 111.153C125.046 110.786 125.545 110.603 126.175 110.603H133.435C133.538 110.764 133.626 110.977 133.699 111.241C133.787 111.505 133.831 111.783 133.831 112.077C133.831 112.634 133.707 113.03 133.457 113.265C133.223 113.499 132.907 113.617 132.511 113.617H127.869V115.663H132.819C132.922 115.824 133.01 116.037 133.083 116.301C133.171 116.55 133.215 116.821 133.215 117.115C133.215 117.672 133.098 118.068 132.863 118.303C132.629 118.537 132.313 118.655 131.917 118.655H127.869V120.965H133.523C133.626 121.126 133.714 121.339 133.787 121.603C133.875 121.867 133.919 122.145 133.919 122.439C133.919 122.996 133.795 123.399 133.545 123.649C133.311 123.883 132.995 124.001 132.599 124.001H126.175C125.545 124.001 125.046 123.817 124.679 123.451C124.313 123.084 124.129 122.585 124.129 121.955V112.649ZM135.615 119.843C135.512 119.681 135.417 119.469 135.329 119.205C135.241 118.941 135.197 118.662 135.197 118.369C135.197 117.826 135.322 117.437 135.571 117.203C135.82 116.953 136.143 116.829 136.539 116.829H141.247C141.335 116.99 141.423 117.203 141.511 117.467C141.614 117.731 141.665 118.009 141.665 118.303C141.665 118.845 141.54 119.241 141.291 119.491C141.042 119.725 140.719 119.843 140.323 119.843H135.615ZM147.616 118.985V123.847C147.455 123.891 147.198 123.935 146.846 123.979C146.494 124.023 146.15 124.045 145.812 124.045C145.475 124.045 145.174 124.015 144.91 123.957C144.661 123.913 144.448 123.825 144.272 123.693C144.096 123.561 143.964 123.377 143.876 123.143C143.788 122.908 143.744 122.6 143.744 122.219V110.603C143.906 110.573 144.162 110.537 144.514 110.493C144.866 110.434 145.204 110.405 145.526 110.405C145.864 110.405 146.157 110.434 146.406 110.493C146.67 110.537 146.89 110.625 147.066 110.757C147.242 110.889 147.374 111.072 147.462 111.307C147.55 111.541 147.594 111.849 147.594 112.231V115.729L152.17 110.471C153.168 110.471 153.879 110.661 154.304 111.043C154.744 111.409 154.964 111.849 154.964 112.363C154.964 112.744 154.869 113.103 154.678 113.441C154.488 113.778 154.18 114.159 153.754 114.585L151.004 117.335C151.371 117.745 151.752 118.171 152.148 118.611C152.559 119.051 152.955 119.483 153.336 119.909C153.732 120.319 154.106 120.715 154.458 121.097C154.825 121.478 155.14 121.808 155.404 122.087C155.404 122.409 155.346 122.695 155.228 122.945C155.111 123.194 154.95 123.407 154.744 123.583C154.554 123.759 154.334 123.891 154.084 123.979C153.835 124.067 153.571 124.111 153.292 124.111C152.691 124.111 152.2 123.964 151.818 123.671C151.437 123.363 151.07 123.003 150.718 122.593L147.616 118.985ZM159.26 114.123L157.06 114.805C156.84 114.658 156.62 114.453 156.4 114.189C156.18 113.925 156.07 113.558 156.07 113.089C156.07 112.209 156.605 111.593 157.676 111.241L160.14 110.405H160.954C161.584 110.405 162.083 110.588 162.45 110.955C162.816 111.321 163 111.82 163 112.451V123.913C162.838 123.942 162.596 123.979 162.274 124.023C161.966 124.081 161.65 124.111 161.328 124.111C161.005 124.111 160.712 124.089 160.448 124.045C160.198 124.001 159.986 123.913 159.81 123.781C159.634 123.649 159.494 123.473 159.392 123.253C159.304 123.018 159.26 122.717 159.26 122.351V114.123ZM175.112 112.187C175.112 112.495 175.039 112.795 174.892 113.089C174.76 113.367 174.599 113.58 174.408 113.727C174.012 113.551 173.594 113.419 173.154 113.331C172.729 113.228 172.333 113.177 171.966 113.177C171.086 113.177 170.404 113.411 169.92 113.881C169.451 114.335 169.136 114.995 168.974 115.861C169.268 115.655 169.656 115.472 170.14 115.311C170.624 115.135 171.123 115.047 171.636 115.047C172.986 115.047 174.056 115.435 174.848 116.213C175.655 116.99 176.058 118.105 176.058 119.557C176.058 120.187 175.948 120.789 175.728 121.361C175.508 121.933 175.178 122.439 174.738 122.879C174.298 123.304 173.748 123.649 173.088 123.913C172.443 124.162 171.688 124.287 170.822 124.287C169.092 124.287 167.728 123.707 166.73 122.549C165.748 121.39 165.256 119.74 165.256 117.599C165.256 116.381 165.403 115.311 165.696 114.387C166.004 113.463 166.43 112.693 166.972 112.077C167.53 111.461 168.19 110.999 168.952 110.691C169.715 110.383 170.558 110.229 171.482 110.229C172.656 110.229 173.55 110.39 174.166 110.713C174.797 111.035 175.112 111.527 175.112 112.187ZM170.8 117.907C170.522 117.907 170.221 117.965 169.898 118.083C169.59 118.2 169.341 118.361 169.15 118.567V119.117C169.15 119.909 169.312 120.473 169.634 120.811C169.972 121.148 170.375 121.317 170.844 121.317C171.328 121.317 171.688 121.155 171.922 120.833C172.172 120.51 172.296 120.092 172.296 119.579C172.296 119.065 172.164 118.662 171.9 118.369C171.651 118.061 171.284 117.907 170.8 117.907Z" fill="white"/>
</svg>
